<?xml version="1.0"?>
<svg xmlns="http://www.w3.org/2000/svg" xmlns:xlink="http://www.w3.org/1999/xlink" xmlns:svgjs="http://svgjs.com/svgjs" version="1.1" width="512" height="512" x="0" y="0" viewBox="0 0 512 512" style="enable-background:new 0 0 512 512" xml:space="preserve"><g><g xmlns="http://www.w3.org/2000/svg"><path d="m478.547 402.813-54.061 102.031c-7.92 12.87-27.755 7.25-27.755-7.87v-83.521z" fill="#ffffff" data-original="#000000"/><path d="m492 370.873-75.404 9.53c-.17-2.16-.589-4.32-1.258-6.45l-36.883-117.951 109.191 106.561c2.367 2.29 3.845 5.22 4.354 8.31z" fill="#ffffff" data-original="#000000"/><path d="m33.453 402.813 81.816 10.41v83.751c0 15.12-19.835 20.74-27.755 7.87z" fill="#ffffff" data-original="#000000"/><path d="m133.546 256.002-36.883 117.951c-.669 2.13-1.089 4.29-1.258 6.45l-75.405-9.53c.509-3.09 1.987-6.02 4.355-8.31z" fill="#ffffff" data-original="#000000"/><path d="m270.04 9.74c-2.428-6.5-8.234-9.74-14.04-9.74s-11.612 3.24-14.04 9.74l-116.708 373.174 130.748-78.187 130.748 78.187z" fill="#ffffff" data-original="#000000"/><path d="m256 339.673-64.997 38.87 10.147 30.44c2.037 6.13 7.76 10.26 14.222 10.26h81.257c6.462 0 12.185-4.13 14.222-10.26l10.147-30.44z" fill="#ffffff" data-original="#000000"/></g></g></svg>
